<?xml version="1.0" standalone="no"?>
<!DOCTYPE svg PUBLIC "-//W3C//DTD SVG 20010904//EN"
 "http://www.w3.org/TR/2001/REC-SVG-20010904/DTD/svg10.dtd">
<svg version="1.0" xmlns="http://www.w3.org/2000/svg"
 width="500.000000pt"  height="500.000000pt" viewBox="0 0 500.000000 500.000000"
 preserveAspectRatio="xMidYMid meet">

<g fill="#FFFFFF" transform="translate(0.000000,500.000000)  scale(0.100000,-0.100000)"
 stroke="none">
<path d="M1286 4133 c-3 -15 -8 -68 -12 -118 -8 -126 15 -265 75 -444 58 -175
118 -300 201 -419 72 -103 123 -177 148 -214 l18 -28 37 38 37 37 -50 53 c-65
69 -155 190 -206 277 -135 229 -203 445 -224 709 -5 71 -12 131 -14 133 -2 2
-6 -9 -10 -24z"/>
<path d="M3682 3958 c-23 -204 -84 -389 -194 -592 -63 -114 -172 -269 -227
-321 -51 -49 -54 -59 -22 -89 l28 -26 80 107 c221 296 337 590 350 886 3 75 4
137 1 137 -3 0 -10 -46 -16 -102z"/>
<path d="M3350 3871 c-109 -60 -159 -95 -244 -171 -138 -123 -244 -273 -306
-430 -29 -75 -2 -65 50 17 63 101 144 204 218 280 110 113 292 240 325 227 12
-4 18 4 25 33 16 63 23 93 20 92 -2 0 -41 -22 -88 -48z"/>
<path d="M1560 3901 c0 -5 5 -32 11 -59 10 -48 11 -50 50 -55 57 -7 130 -62
252 -186 126 -128 214 -245 252 -334 29 -69 37 -75 78 -56 l24 11 -33 80 c-82
193 -319 445 -525 559 -81 44 -109 54 -109 40z"/>
<path d="M2334 2986 c-144 -30 -255 -85 -378 -186 -198 -165 -309 -382 -322
-630 -3 -52 -1 -122 4 -155 l10 -60 1 70 c2 95 26 241 52 312 91 246 298 446
548 530 93 32 121 37 232 41 111 4 136 2 200 -17 299 -91 528 -326 601 -619
19 -75 22 -113 22 -277 l-1 -190 19 43 c27 61 48 180 48 273 0 236 -124 507
-301 660 -139 119 -250 175 -416 208 -127 26 -180 26 -319 -3z"/>
<path d="M2575 2613 c-36 -76 -28 -110 70 -308 49 -99 102 -199 117 -222 15
-23 28 -50 29 -60 0 -14 3 -12 11 7 6 14 17 38 25 54 7 17 9 34 4 40 -29 37
-199 392 -216 454 l-22 74 -18 -39z"/>
<path d="M2026 2602 c-3 -5 -8 -27 -12 -50 -5 -34 0 -56 31 -129 37 -85 123
-255 152 -300 18 -27 22 -25 46 19 l18 34 -35 53 c-20 29 -36 59 -36 66 0 10
-143 298 -155 313 -2 2 -6 -1 -9 -6z"/>
<path d="M2385 2048 c-36 -72 -93 -200 -126 -285 l-60 -153 -32 0 c-51 1 -121
17 -125 29 -7 22 -22 10 -22 -18 0 -43 9 -60 41 -76 91 -48 141 3 286 290 96
191 106 216 111 278 2 37 2 67 -1 67 -3 0 -36 -59 -72 -132z"/>
<path d="M2966 1997 c-32 -67 -83 -181 -114 -254 l-55 -133 -79 0 c-75 0 -78
1 -78 24 0 12 5 37 11 55 6 18 9 34 7 37 -3 2 -19 -37 -36 -88 -40 -121 -36
-128 62 -128 56 0 79 4 95 18 24 20 281 525 281 553 0 10 -8 23 -18 28 -16 8
-25 -5 -76 -112z"/>
<path d="M1392 2028 c-1 -15 -7 -39 -12 -54 -6 -15 -8 -29 -6 -32 8 -7 146 29
146 39 0 11 -11 12 -72 9 -46 -2 -47 -1 -51 32 -3 27 -4 29 -5 6z"/>
<path d="M3487 1993 c-15 -14 -5 -22 36 -28 23 -3 50 -9 60 -11 24 -7 22 22
-2 36 -22 11 -84 14 -94 3z"/>
<path d="M1550 1866 c-8 -8 -78 -38 -155 -66 -77 -28 -190 -71 -251 -96 -116
-46 -131 -47 -171 -11 l-22 20 -7 -27 c-7 -29 2 -74 18 -93 19 -23 95 -15 171
18 136 58 249 99 272 99 20 0 25 -6 31 -45 3 -25 10 -45 16 -45 19 0 70 32 61
39 -12 7 -43 66 -43 80 0 6 18 20 40 31 45 23 63 49 58 86 -3 22 -5 23 -18 10z"/>
<path d="M3430 1819 c0 -27 6 -33 50 -51 28 -11 50 -25 50 -30 0 -18 -30 -67
-47 -76 -14 -8 -12 -12 14 -25 l30 -16 14 41 c7 22 19 42 25 45 7 3 41 -6 76
-20 243 -96 299 -117 314 -117 26 0 84 65 84 94 l0 26 -35 -17 c-34 -16 -35
-16 -152 30 -120 48 -290 107 -375 132 l-48 13 0 -29z"/>
<path d="M2665 1759 c-4 -6 -5 -12 -2 -15 2 -3 7 2 10 11 7 17 1 20 -8 4z"/>
<path d="M1616 1565 c-22 -13 -43 -30 -48 -39 -5 -8 -59 -48 -121 -89 -206
-135 -209 -136 -258 -88 l-29 29 0 -44 c0 -34 6 -51 25 -69 13 -14 32 -25 42
-25 24 1 95 33 146 68 173 118 174 118 216 57 51 -75 230 -225 358 -299 80
-47 244 -101 363 -121 172 -27 390 -15 527 31 205 68 399 201 546 373 l46 55
53 -29 c29 -16 93 -57 142 -92 94 -66 117 -73 155 -47 23 17 51 70 51 99 0 14
-3 14 -30 0 -40 -21 -68 -18 -117 13 -23 15 -88 55 -145 90 -57 35 -125 81
-153 102 -29 23 -53 36 -59 30 -16 -16 4 -58 39 -80 35 -22 35 -22 18 -50 -20
-34 -168 -172 -238 -222 -105 -75 -261 -142 -418 -178 -85 -20 -115 -22 -254
-17 -130 4 -175 10 -253 31 -122 35 -248 88 -332 142 -73 47 -264 225 -273
255 -5 14 4 29 29 53 24 22 36 42 36 60 0 31 -12 32 -64 1z"/>
</g>
</svg>
